<svg width="127" height="83" viewBox="0 0 127 83" fill="none" xmlns="http://www.w3.org/2000/svg">
<path d="M2.87268 34L11.2208 8.71316H20.4003L29.0601 34H23.1714L21.1277 27.7302H10.5626L8.55356 34H2.87268ZM12.0521 23.0193H19.5689L16.4167 13.3549H15.1351L12.0521 23.0193ZM31.3599 34V12.8006H29.1083V8.71316H36.9368V34H31.3599ZM47.7593 34.5889C45.5654 34.5889 43.8796 33.8845 42.7019 32.4759C41.5241 31.0672 40.9353 28.9195 40.9353 26.0329V15.0175H46.4776V26.31C46.4776 27.3261 46.7663 28.1344 47.3436 28.7348C47.9209 29.3352 48.6945 29.6354 49.6644 29.6354C50.6574 29.6354 51.4657 29.3237 52.0892 28.7002C52.7127 28.0766 53.0245 27.2337 53.0245 26.1715V15.0175H58.5668V34H54.1676V29.5661C53.3824 32.9146 51.3271 34.5889 48.0017 34.5889H47.7593ZM70.4665 41.5514C69.5197 41.5514 68.5614 41.5168 67.5915 41.4475C66.6215 41.3782 65.744 41.2858 64.9589 41.1704V36.494C65.7671 36.6095 66.6562 36.7019 67.6261 36.7712C68.596 36.8635 69.4966 36.9097 70.328 36.9097C72.568 36.9097 74.1845 36.5171 75.1775 35.732C76.1936 34.9699 76.7016 33.7575 76.7016 32.0948V30.4321C76.1012 31.633 75.2468 32.5567 74.1383 33.2033C73.0529 33.8268 71.7713 34.1386 70.2933 34.1386C68.5614 34.1386 67.0603 33.7344 65.7902 32.9262C64.5201 32.0948 63.5386 30.9633 62.8458 29.5315C62.1531 28.0997 61.8067 26.4948 61.8067 24.7166V23.9199C61.8067 22.1186 62.1761 20.5137 62.9151 19.105C63.6541 17.6732 64.6817 16.5417 65.998 15.7103C67.3374 14.879 68.8847 14.4633 70.6397 14.4633C72.2793 14.4633 73.688 14.8559 74.8658 15.6411C76.0435 16.4262 76.9326 17.5578 77.533 19.0357V15.0175H81.9322V31.7484C81.9322 35.2586 80.9854 37.7642 79.0918 39.2652C77.2212 40.7893 74.3462 41.5514 70.4665 41.5514ZM72.0253 29.4622C73.2954 29.4622 74.3693 29.0466 75.2468 28.2152C76.1474 27.3608 76.5977 26.1715 76.5977 24.6473V23.6428C76.5977 22.6498 76.3783 21.8184 75.9396 21.1487C75.5239 20.456 74.9697 19.9364 74.2769 19.59C73.5841 19.2205 72.8451 19.0357 72.06 19.0357C70.6513 19.0357 69.5082 19.5207 68.6306 20.4906C67.7762 21.4374 67.349 22.7075 67.349 24.3009C67.349 25.9174 67.7877 27.1876 68.6653 28.1113C69.5428 29.0119 70.6628 29.4622 72.0253 29.4622ZM92.4469 34.5889C90.2531 34.5889 88.5673 33.8845 87.3896 32.4759C86.2118 31.0672 85.6229 28.9195 85.6229 26.0329V15.0175H91.1653V26.31C91.1653 27.3261 91.4539 28.1344 92.0313 28.7348C92.6086 29.3352 93.3822 29.6354 94.3521 29.6354C95.3451 29.6354 96.1534 29.3237 96.7769 28.7002C97.4004 28.0766 97.7121 27.2337 97.7121 26.1715V15.0175H103.254V34H98.8552V29.5661C98.0701 32.9146 96.0148 34.5889 92.6894 34.5889H92.4469ZM116.367 34.6582C114.75 34.6582 113.318 34.381 112.071 33.8268C110.847 33.2726 109.82 32.5336 108.988 31.6099C108.157 30.6631 107.534 29.6123 107.118 28.4577C106.702 27.2799 106.494 26.0791 106.494 24.8552V24.1624C106.494 22.9154 106.702 21.703 107.118 20.5252C107.534 19.3475 108.157 18.2968 108.988 17.373C109.82 16.4493 110.824 15.7219 112.002 15.1907C113.203 14.6365 114.588 14.3594 116.159 14.3594C118.191 14.3594 119.9 14.8213 121.285 15.745C122.694 16.6456 123.768 17.8349 124.507 19.3128C125.246 20.7908 125.615 22.3842 125.615 24.0931V25.9636H111.725C111.91 27.2568 112.371 28.2845 113.11 29.0466C113.873 29.7855 114.958 30.155 116.367 30.155C117.36 30.155 118.179 29.9703 118.826 29.6008C119.496 29.2082 119.946 28.7117 120.177 28.1113H125.269C124.853 30.0511 123.849 31.633 122.255 32.8569C120.685 34.0577 118.722 34.6582 116.367 34.6582ZM116.159 18.8625C114.958 18.8625 113.976 19.2089 113.214 19.9017C112.475 20.5714 112.002 21.5413 111.794 22.8114H120.315C120.131 21.5413 119.68 20.5714 118.965 19.9017C118.272 19.2089 117.336 18.8625 116.159 18.8625Z" fill="white"/>
<path d="M2.84044 72.4116V47.1248H18.0125V51.8358H8.52132V57.5166H17.5969V62.2276H8.52132V72.4116H2.84044ZM25.8787 72.8966C23.8234 72.8966 22.1607 72.3654 20.8906 71.3032C19.6436 70.2409 19.0201 68.7398 19.0201 66.8C19.0201 65.4144 19.378 64.2829 20.0939 63.4053C20.8098 62.5047 21.8143 61.8466 23.1075 61.4309C24.4007 60.9921 25.8902 60.7727 27.576 60.7727H31.0053V60.7035C31.0053 58.7637 30.0354 57.7937 28.0956 57.7937C27.5876 57.7937 26.9179 57.8168 26.0865 57.863C25.2552 57.8861 24.3892 57.9208 23.4886 57.9669C22.611 57.99 21.8259 58.0247 21.1331 58.0709V53.3945C21.9413 53.3253 22.9343 53.2675 24.1121 53.2213C25.2898 53.1521 26.3752 53.1174 27.3682 53.1174C30.2779 53.1174 32.4948 53.7409 34.019 54.9879C35.5662 56.2119 36.3398 58.1401 36.3398 60.7727V72.4116H31.9406V68.8438C31.5249 70.1601 30.809 71.1646 29.793 71.8574C28.7769 72.5502 27.4721 72.8966 25.8787 72.8966ZM27.5414 69.0516C28.442 69.0516 29.2272 68.7976 29.8969 68.2895C30.5666 67.7815 30.9361 66.8116 31.0053 65.3798V63.8557H27.5414C26.5715 63.8557 25.821 64.0981 25.2898 64.5831C24.7818 65.068 24.5277 65.7031 24.5277 66.4883C24.5277 67.2503 24.7818 67.8738 25.2898 68.3588C25.821 68.8207 26.5715 69.0516 27.5414 69.0516ZM25.2552 51.2122L28.3727 43.9726H34.0536L30.1047 51.2122H25.2552ZM48.8707 73.0698C47.2311 73.0698 45.7993 72.8042 44.5754 72.2731C43.3745 71.7188 42.37 70.9799 41.5617 70.0561C40.7535 69.1324 40.1531 68.0932 39.7605 66.9386C39.3679 65.7608 39.1716 64.5485 39.1716 63.3014V62.6433C39.1716 60.9113 39.5295 59.2948 40.2454 57.7937C40.9844 56.2927 42.0698 55.0803 43.5015 54.1566C44.9564 53.2329 46.7346 52.771 48.836 52.771C50.5449 52.771 52.0575 53.1059 53.3738 53.7756C54.6901 54.4222 55.7408 55.3343 56.526 56.5121C57.3112 57.6898 57.7499 59.0408 57.8423 60.5649H52.4039C52.3115 59.7105 51.9651 58.9946 51.3647 58.4173C50.7643 57.8168 49.9214 57.5166 48.836 57.5166C47.4273 57.5166 46.3882 58.0247 45.7185 59.0408C45.0488 60.0338 44.7139 61.3501 44.7139 62.9897C44.7139 64.5369 45.0257 65.8186 45.6492 66.8347C46.2958 67.8277 47.3696 68.3242 48.8707 68.3242C49.9791 68.3242 50.8451 68.0355 51.4686 67.4582C52.0921 66.8808 52.4616 66.1188 52.5771 65.172H57.9809C57.8885 66.7423 57.4382 68.1279 56.6299 69.3287C55.8448 70.5064 54.7709 71.4302 53.4084 72.0999C52.069 72.7465 50.5565 73.0698 48.8707 73.0698ZM63.8809 51.5586C62.8417 51.5586 62.0681 51.2931 61.5601 50.7619C61.0751 50.2077 60.8327 49.5149 60.8327 48.6836C60.8327 47.8291 61.0751 47.1363 61.5601 46.6052C62.0681 46.051 62.8417 45.7738 63.8809 45.7738C64.9201 45.7738 65.6822 46.051 66.1671 46.6052C66.6752 47.1363 66.9292 47.8291 66.9292 48.6836C66.9292 49.5149 66.6752 50.2077 66.1671 50.7619C65.6822 51.2931 64.9201 51.5586 63.8809 51.5586ZM61.7333 72.4116V57.5166H59.2046V53.4292H67.2756V72.4116H61.7333ZM71.9514 72.4116V51.2122H69.6998V47.1248H77.5284V72.4116H71.9514Z" fill="#00AB44"/>
<path d="M115.263 49.3288L112.598 46.6636L100.614 58.6477L103.279 61.313L115.263 49.3288ZM123.278 46.6636L103.279 66.6624L95.3777 58.7801L92.7125 61.4453L103.279 72.0118L125.962 49.3288L123.278 46.6636ZM82.0137 61.4453L92.5801 72.0118L95.2454 69.3465L84.6978 58.7801L82.0137 61.4453Z" fill="white"/>
</svg>
