<svg width="159" height="27" viewBox="0 0 159 27" fill="none" xmlns="http://www.w3.org/2000/svg">
<path d="M0.277809 21L5.42797 5.39993H11.091L16.4335 21H12.8006L11.5398 17.132H5.02194L3.78248 21H0.277809ZM5.94085 14.2257H10.5781L8.63346 8.26351H7.84277L5.94085 14.2257ZM17.8523 21V7.92159H16.4632V5.39993H21.2928V21H17.8523ZM27.9694 21.3633C26.616 21.3633 25.576 20.9288 24.8494 20.0597C24.1228 19.1907 23.7596 17.8657 23.7596 16.0849V9.28926H27.1787V16.2559C27.1787 16.8827 27.3568 17.3814 27.713 17.7518C28.0692 18.1222 28.5464 18.3074 29.1448 18.3074C29.7574 18.3074 30.256 18.1151 30.6407 17.7304C31.0253 17.3457 31.2177 16.8257 31.2177 16.1704V9.28926H34.6369V21H31.9229V18.2646C31.4385 20.3304 30.1705 21.3633 28.119 21.3633H27.9694ZM41.9781 25.6587C41.394 25.6587 40.8028 25.6373 40.2044 25.5945C39.606 25.5518 39.0647 25.4948 38.5803 25.4236V22.5386C39.0789 22.6099 39.6274 22.6669 40.2258 22.7096C40.8241 22.7666 41.3798 22.7951 41.8926 22.7951C43.2746 22.7951 44.2718 22.5529 44.8844 22.0685C45.5113 21.5984 45.8247 20.8504 45.8247 19.8247V18.7989C45.4543 19.5397 44.9272 20.1096 44.2433 20.5085C43.5737 20.8932 42.783 21.0855 41.8713 21.0855C40.8028 21.0855 39.8767 20.8362 39.0932 20.3375C38.3096 19.8247 37.7041 19.1266 37.2767 18.2433C36.8493 17.36 36.6356 16.3698 36.6356 15.2729V14.7813C36.6356 13.6701 36.8636 12.68 37.3195 11.8109C37.7754 10.9276 38.4093 10.2295 39.2214 9.71666C40.0477 9.20378 41.0022 8.94734 42.085 8.94734C43.0965 8.94734 43.9655 9.18954 44.6921 9.67392C45.4187 10.1583 45.9672 10.8564 46.3376 11.7682V9.28926H49.0516V19.611C49.0516 21.7764 48.4675 23.3222 47.2992 24.2482C46.1453 25.1885 44.3715 25.6587 41.9781 25.6587ZM42.9398 18.2005C43.7233 18.2005 44.3858 17.9441 44.9272 17.4312C45.4828 16.9041 45.7606 16.1704 45.7606 15.2301V14.6104C45.7606 13.9978 45.6253 13.4849 45.3546 13.0717C45.0981 12.6443 44.7562 12.3238 44.3288 12.1101C43.9014 11.8822 43.4455 11.7682 42.9611 11.7682C42.0921 11.7682 41.3869 12.0674 40.8455 12.6657C40.3184 13.2498 40.0548 14.0334 40.0548 15.0164C40.0548 16.0137 40.3255 16.7972 40.8669 17.3671C41.4082 17.9227 42.0992 18.2005 42.9398 18.2005ZM55.5383 21.3633C54.1849 21.3633 53.1449 20.9288 52.4183 20.0597C51.6918 19.1907 51.3285 17.8657 51.3285 16.0849V9.28926H54.7477V16.2559C54.7477 16.8827 54.9257 17.3814 55.2819 17.7518C55.6381 18.1222 56.1153 18.3074 56.7137 18.3074C57.3263 18.3074 57.8249 18.1151 58.2096 17.7304C58.5943 17.3457 58.7866 16.8257 58.7866 16.1704V9.28926H62.2058V21H59.4918V18.2646C59.0074 20.3304 57.7395 21.3633 55.6879 21.3633H55.5383ZM70.295 21.406C69.2977 21.406 68.4144 21.2351 67.6451 20.8932C66.89 20.5512 66.256 20.0953 65.7432 19.5255C65.2303 18.9414 64.8456 18.2931 64.5892 17.5808C64.3328 16.8542 64.2045 16.1134 64.2045 15.3583V14.9309C64.2045 14.1616 64.3328 13.4137 64.5892 12.6871C64.8456 11.9605 65.2303 11.3123 65.7432 10.7424C66.256 10.1726 66.8758 9.72379 67.6024 9.39611C68.3432 9.05419 69.198 8.88323 70.1668 8.88323C71.4205 8.88323 72.4747 9.16817 73.3295 9.73803C74.1986 10.2937 74.861 11.0274 75.3169 11.9391C75.7728 12.8509 76.0008 13.8339 76.0008 14.8882V16.0422H67.4314C67.5454 16.84 67.8303 17.474 68.2862 17.9441C68.7563 18.4 69.4259 18.6279 70.295 18.6279C70.9076 18.6279 71.4133 18.514 71.8122 18.286C72.2254 18.0438 72.5032 17.7375 72.6457 17.3671H75.7871C75.5306 18.5638 74.9109 19.5397 73.9279 20.2948C72.9591 21.0356 71.7481 21.406 70.295 21.406ZM70.1668 11.6613C69.4259 11.6613 68.8204 11.875 68.3503 12.3024C67.8944 12.7156 67.6024 13.3139 67.4741 14.0975H72.7311C72.6172 13.3139 72.3394 12.7156 71.8977 12.3024C71.4703 11.875 70.8933 11.6613 70.1668 11.6613Z" fill="#00AB44"/>
<path d="M83.0434 21V5.39993H92.4034V8.30624H86.548V11.8109H92.147V14.7172H86.548V21H83.0434ZM97.2562 21.2992C95.9883 21.2992 94.9625 20.9715 94.1789 20.3162C93.4096 19.6608 93.025 18.7348 93.025 17.5381C93.025 16.6833 93.2458 15.9852 93.6874 15.4438C94.1291 14.8882 94.7488 14.4822 95.5466 14.2257C96.3444 13.955 97.2633 13.8197 98.3033 13.8197H100.419V13.777C100.419 12.5802 99.8206 11.9819 98.6239 11.9819C98.3105 11.9819 97.8973 11.9961 97.3844 12.0246C96.8716 12.0389 96.3373 12.0602 95.7817 12.0887C95.2403 12.103 94.7559 12.1243 94.3285 12.1528V9.26789C94.8272 9.22515 95.4398 9.18954 96.1663 9.16104C96.8929 9.1183 97.5625 9.09693 98.1751 9.09693C99.9702 9.09693 101.338 9.48159 102.278 10.2509C103.233 11.006 103.71 12.1956 103.71 13.8197V21H100.996V18.7989C100.74 19.611 100.298 20.2307 99.671 20.6581C99.0442 21.0855 98.2392 21.2992 97.2562 21.2992ZM98.282 18.9271C98.8376 18.9271 99.322 18.7704 99.7351 18.457C100.148 18.1435 100.376 17.5452 100.419 16.6619V15.7216H98.282C97.6836 15.7216 97.2206 15.8712 96.8929 16.1704C96.5795 16.4696 96.4228 16.8614 96.4228 17.3457C96.4228 17.8159 96.5795 18.2005 96.8929 18.4997C97.2206 18.7846 97.6836 18.9271 98.282 18.9271ZM96.8716 7.92159L98.7948 3.45526H102.3L99.8633 7.92159H96.8716ZM111.441 21.406C110.429 21.406 109.546 21.2422 108.791 20.9145C108.05 20.5726 107.43 20.1167 106.931 19.5468C106.433 18.977 106.062 18.3359 105.82 17.6235C105.578 16.897 105.457 16.149 105.457 15.3797V14.9737C105.457 13.9052 105.678 12.9079 106.119 11.9819C106.575 11.0558 107.245 10.3079 108.128 9.73803C109.026 9.16817 110.123 8.88323 111.419 8.88323C112.473 8.88323 113.407 9.08981 114.219 9.50296C115.031 9.90187 115.679 10.4646 116.163 11.1912C116.648 11.9178 116.918 12.7512 116.975 13.6915H113.62C113.563 13.1643 113.35 12.7227 112.979 12.3665C112.609 11.9961 112.089 11.8109 111.419 11.8109C110.55 11.8109 109.909 12.1243 109.496 12.7512C109.083 13.3638 108.876 14.1759 108.876 15.1874C108.876 16.1419 109.068 16.9326 109.453 17.5594C109.852 18.172 110.514 18.4783 111.441 18.4783C112.124 18.4783 112.659 18.3003 113.043 17.9441C113.428 17.5879 113.656 17.1178 113.727 16.5337H117.061C117.004 17.5025 116.726 18.3572 116.227 19.0981C115.743 19.8247 115.081 20.3945 114.24 20.8077C113.414 21.2066 112.481 21.406 111.441 21.406ZM120.701 8.13528C120.06 8.13528 119.582 7.97145 119.269 7.64378C118.97 7.30186 118.82 6.87446 118.82 6.36158C118.82 5.83445 118.97 5.40705 119.269 5.07938C119.582 4.73746 120.06 4.5665 120.701 4.5665C121.342 4.5665 121.812 4.73746 122.111 5.07938C122.425 5.40705 122.581 5.83445 122.581 6.36158C122.581 6.87446 122.425 7.30186 122.111 7.64378C121.812 7.97145 121.342 8.13528 120.701 8.13528ZM119.376 21V11.8109H117.816V9.28926H122.795V21H119.376ZM125.68 21V7.92159H124.291V5.39993H129.12V21H125.68Z" fill="#1A1A1A"/>
<path d="M152.4 6.73508L150.755 5.09082L143.362 12.4841L145.006 14.1284L152.4 6.73508ZM157.344 5.09082L145.006 17.4286L140.132 12.5658L138.488 14.21L145.006 20.7287L159 6.73508L157.344 5.09082ZM131.887 14.21L138.406 20.7287L140.05 19.0845L133.543 12.5658L131.887 14.21Z" fill="#00AB44"/>
</svg>
